<?xml version="1.0" encoding="UTF-8" standalone="yes"?><svg xmlns="http://www.w3.org/2000/svg" xmlns:xlink="http://www.w3.org/1999/xlink" height="190px" style="width:369px;height:190px;" version="1.1" viewBox="0 0 369 190" width="369px"><defs><filter height="300%" id="f1" width="300%" x="-1" y="-1"><feGaussianBlur result="blurOut" stdDeviation="2.0"/><feColorMatrix in="blurOut" result="blurOut2" type="matrix" values="0 0 0 0 0 0 0 0 0 0 0 0 0 0 0 0 0 0 .4 0"/><feOffset dx="4.0" dy="4.0" in="blurOut2" result="blurOut3"/><feBlend in="SourceGraphic" in2="blurOut3" mode="normal"/></filter></defs><g><rect fill="#FEFECE" filter="url(#f1)" height="48" style="stroke: #A80036; stroke-width: 1.5;" width="77" x="6" y="133"/><ellipse cx="21" cy="149" fill="#ADD1B2" rx="11" ry="11" style="stroke: #A80036; stroke-width: 1.0;"/><path d="M23.3438,144.6719 L23.5156,144.75 C23.7344,144.4375 23.9375,144.3438 24.2344,144.3438 C24.5313,144.3438 24.8125,144.4844 24.9688,144.75 C25.0625,144.9063 25.0781,145.0313 25.0781,145.4688 L25.0781,146.8906 C25.0781,147.3125 25.0469,147.5 24.9375,147.6563 C24.7656,147.875 24.5,148.0156 24.2344,148.0156 C24.0156,148.0156 23.7813,147.9063 23.6406,147.7656 C23.5,147.6406 23.4688,147.5156 23.4063,147.1094 C23.3125,146.7031 23.1406,146.4844 22.6563,146.2031 C22.1875,145.9531 21.5781,145.7969 21,145.7969 C19.2656,145.7969 18.0156,147.1094 18.0156,148.8906 L18.0156,149.9844 C18.0156,151.6875 19.3125,152.7813 21.3594,152.7813 C22.125,152.7813 22.8125,152.6563 23.2344,152.3906 C23.4219,152.2969 23.4219,152.2969 23.875,151.8125 C24.0625,151.625 24.2656,151.5469 24.4844,151.5469 C24.9531,151.5469 25.3438,151.9375 25.3438,152.3906 C25.3438,152.7813 25.0156,153.2344 24.4375,153.6406 C23.6875,154.1875 22.5313,154.4844 21.3125,154.4844 C18.4219,154.4844 16.3125,152.5938 16.3125,150.0156 L16.3125,148.8906 C16.3125,146.1719 18.3125,144.0938 20.9375,144.0938 C21.8125,144.0938 22.4063,144.2344 23.3438,144.6719 Z "/><text fill="#000000" font-family="sans-serif" font-size="12" lengthAdjust="spacingAndGlyphs" textLength="45" x="35" y="153.1543">Vehicle</text><line style="stroke: #A80036; stroke-width: 1.5;" x1="7" x2="82" y1="165" y2="165"/><line style="stroke: #A80036; stroke-width: 1.5;" x1="7" x2="82" y1="173" y2="173"/><rect fill="#FEFECE" filter="url(#f1)" height="48" style="stroke: #A80036; stroke-width: 1.5;" width="53" x="153" y="133"/><ellipse cx="168" cy="149" fill="#ADD1B2" rx="11" ry="11" style="stroke: #A80036; stroke-width: 1.0;"/><path d="M170.3438,144.6719 L170.5156,144.75 C170.7344,144.4375 170.9375,144.3438 171.2344,144.3438 C171.5313,144.3438 171.8125,144.4844 171.9688,144.75 C172.0625,144.9063 172.0781,145.0313 172.0781,145.4688 L172.0781,146.8906 C172.0781,147.3125 172.0469,147.5 171.9375,147.6563 C171.7656,147.875 171.5,148.0156 171.2344,148.0156 C171.0156,148.0156 170.7813,147.9063 170.6406,147.7656 C170.5,147.6406 170.4688,147.5156 170.4063,147.1094 C170.3125,146.7031 170.1406,146.4844 169.6563,146.2031 C169.1875,145.9531 168.5781,145.7969 168,145.7969 C166.2656,145.7969 165.0156,147.1094 165.0156,148.8906 L165.0156,149.9844 C165.0156,151.6875 166.3125,152.7813 168.3594,152.7813 C169.125,152.7813 169.8125,152.6563 170.2344,152.3906 C170.4219,152.2969 170.4219,152.2969 170.875,151.8125 C171.0625,151.625 171.2656,151.5469 171.4844,151.5469 C171.9531,151.5469 172.3438,151.9375 172.3438,152.3906 C172.3438,152.7813 172.0156,153.2344 171.4375,153.6406 C170.6875,154.1875 169.5313,154.4844 168.3125,154.4844 C165.4219,154.4844 163.3125,152.5938 163.3125,150.0156 L163.3125,148.8906 C163.3125,146.1719 165.3125,144.0938 167.9375,144.0938 C168.8125,144.0938 169.4063,144.2344 170.3438,144.6719 Z "/><text fill="#000000" font-family="sans-serif" font-size="12" lengthAdjust="spacingAndGlyphs" textLength="21" x="182" y="153.1543">Car</text><line style="stroke: #A80036; stroke-width: 1.5;" x1="154" x2="205" y1="165" y2="165"/><line style="stroke: #A80036; stroke-width: 1.5;" x1="154" x2="205" y1="173" y2="173"/><rect fill="#FEFECE" filter="url(#f1)" height="48" style="stroke: #A80036; stroke-width: 1.5;" width="70" x="290.5" y="133"/><ellipse cx="305.5" cy="149" fill="#ADD1B2" rx="11" ry="11" style="stroke: #A80036; stroke-width: 1.0;"/><path d="M307.8438,144.6719 L308.0156,144.75 C308.2344,144.4375 308.4375,144.3438 308.7344,144.3438 C309.0313,144.3438 309.3125,144.4844 309.4688,144.75 C309.5625,144.9063 309.5781,145.0313 309.5781,145.4688 L309.5781,146.8906 C309.5781,147.3125 309.5469,147.5 309.4375,147.6563 C309.2656,147.875 309,148.0156 308.7344,148.0156 C308.5156,148.0156 308.2813,147.9063 308.1406,147.7656 C308,147.6406 307.9688,147.5156 307.9063,147.1094 C307.8125,146.7031 307.6406,146.4844 307.1563,146.2031 C306.6875,145.9531 306.0781,145.7969 305.5,145.7969 C303.7656,145.7969 302.5156,147.1094 302.5156,148.8906 L302.5156,149.9844 C302.5156,151.6875 303.8125,152.7813 305.8594,152.7813 C306.625,152.7813 307.3125,152.6563 307.7344,152.3906 C307.9219,152.2969 307.9219,152.2969 308.375,151.8125 C308.5625,151.625 308.7656,151.5469 308.9844,151.5469 C309.4531,151.5469 309.8438,151.9375 309.8438,152.3906 C309.8438,152.7813 309.5156,153.2344 308.9375,153.6406 C308.1875,154.1875 307.0313,154.4844 305.8125,154.4844 C302.9219,154.4844 300.8125,152.5938 300.8125,150.0156 L300.8125,148.8906 C300.8125,146.1719 302.8125,144.0938 305.4375,144.0938 C306.3125,144.0938 306.9063,144.2344 307.8438,144.6719 Z "/><text fill="#000000" font-family="sans-serif" font-size="12" lengthAdjust="spacingAndGlyphs" textLength="38" x="319.5" y="153.1543">Wheel</text><line style="stroke: #A80036; stroke-width: 1.5;" x1="291.5" x2="359.5" y1="165" y2="165"/><line style="stroke: #A80036; stroke-width: 1.5;" x1="291.5" x2="359.5" y1="173" y2="173"/><rect fill="#FEFECE" filter="url(#f1)" height="48" style="stroke: #A80036; stroke-width: 1.5;" width="76" x="141.5" y="8"/><ellipse cx="156.5" cy="24" fill="#ADD1B2" rx="11" ry="11" style="stroke: #A80036; stroke-width: 1.0;"/><path d="M158.8438,19.6719 L159.0156,19.75 C159.2344,19.4375 159.4375,19.3438 159.7344,19.3438 C160.0313,19.3438 160.3125,19.4844 160.4688,19.75 C160.5625,19.9063 160.5781,20.0313 160.5781,20.4688 L160.5781,21.8906 C160.5781,22.3125 160.5469,22.5 160.4375,22.6563 C160.2656,22.875 160,23.0156 159.7344,23.0156 C159.5156,23.0156 159.2813,22.9063 159.1406,22.7656 C159,22.6406 158.9688,22.5156 158.9063,22.1094 C158.8125,21.7031 158.6406,21.4844 158.1563,21.2031 C157.6875,20.9531 157.0781,20.7969 156.5,20.7969 C154.7656,20.7969 153.5156,22.1094 153.5156,23.8906 L153.5156,24.9844 C153.5156,26.6875 154.8125,27.7813 156.8594,27.7813 C157.625,27.7813 158.3125,27.6563 158.7344,27.3906 C158.9219,27.2969 158.9219,27.2969 159.375,26.8125 C159.5625,26.625 159.7656,26.5469 159.9844,26.5469 C160.4531,26.5469 160.8438,26.9375 160.8438,27.3906 C160.8438,27.7813 160.5156,28.2344 159.9375,28.6406 C159.1875,29.1875 158.0313,29.4844 156.8125,29.4844 C153.9219,29.4844 151.8125,27.5938 151.8125,25.0156 L151.8125,23.8906 C151.8125,21.1719 153.8125,19.0938 156.4375,19.0938 C157.3125,19.0938 157.9063,19.2344 158.8438,19.6719 Z "/><text fill="#000000" font-family="sans-serif" font-size="12" lengthAdjust="spacingAndGlyphs" textLength="44" x="170.5" y="28.1543">Person</text><line style="stroke: #A80036; stroke-width: 1.5;" x1="142.5" x2="216.5" y1="40" y2="40"/><line style="stroke: #A80036; stroke-width: 1.5;" x1="142.5" x2="216.5" y1="48" y2="48"/><path d="M103.3637,157 C119.845,157 136.327,157 152.808,157 " fill="none" style="stroke: #A80036; stroke-width: 1.0;"/><polygon fill="none" points="103.2598,163.9999,83.2598,157,103.2597,149.9999,103.2598,163.9999" style="stroke: #A80036; stroke-width: 1.0;"/><path d="M219.333,157 C241.54,157 268.947,157 290.352,157 " fill="none" style="stroke: #A80036; stroke-width: 1.0;"/><polygon fill="#A80036" points="206.279,157,212.279,161,218.279,157,212.279,153,206.279,157" style="stroke: #A80036; stroke-width: 1.0;"/><text fill="#000000" font-family="sans-serif" font-size="13" lengthAdjust="spacingAndGlyphs" textLength="35" x="224.25" y="150.0669">has 4</text><polygon fill="#000000" points="262.25,144.0664,268.25,147.0664,262.25,150.0664,262.25,144.0664" style="stroke: #000000; stroke-width: 1.0;"/><path d="M179.5,56.135 C179.5,78.126 179.5,111.0123 179.5,132.9684 " fill="none" style="stroke: #A80036; stroke-width: 1.0;"/><text fill="#000000" font-family="sans-serif" font-size="13" lengthAdjust="spacingAndGlyphs" textLength="32" x="180.5" y="99.0669">owns</text><polygon fill="#000000" points="192,108.1328,195,114.1328,198,108.1328,192,108.1328" style="stroke: #000000; stroke-width: 1.0;"/><text fill="#000000" font-family="sans-serif" font-size="13" lengthAdjust="spacingAndGlyphs" textLength="16" x="161.55" y="75.9291">0..</text><text fill="#000000" font-family="sans-serif" font-size="13" lengthAdjust="spacingAndGlyphs" textLength="8" x="170.475" y="121.9723">1</text></g></svg>