<?xml version="1.0" encoding="UTF-8" standalone="yes"?><svg xmlns="http://www.w3.org/2000/svg" xmlns:xlink="http://www.w3.org/1999/xlink" height="190px" style="width:525px;height:190px;" version="1.1" viewBox="0 0 525 190" width="525px"><defs><filter height="300%" id="f1" width="300%" x="-1" y="-1"><feGaussianBlur result="blurOut" stdDeviation="2.0"/><feColorMatrix in="blurOut" result="blurOut2" type="matrix" values="0 0 0 0 0 0 0 0 0 0 0 0 0 0 0 0 0 0 .4 0"/><feOffset dx="4.0" dy="4.0" in="blurOut2" result="blurOut3"/><feBlend in="SourceGraphic" in2="blurOut3" mode="normal"/></filter></defs><g><rect fill="#FEFECE" filter="url(#f1)" height="48" style="stroke: #A80036; stroke-width: 1.5;" width="77" x="161.5" y="133"/><ellipse cx="176.5" cy="149" fill="#ADD1B2" rx="11" ry="11" style="stroke: #A80036; stroke-width: 1.0;"/><path d="M178.8438,144.6719 L179.0156,144.75 C179.2344,144.4375 179.4375,144.3438 179.7344,144.3438 C180.0313,144.3438 180.3125,144.4844 180.4688,144.75 C180.5625,144.9063 180.5781,145.0313 180.5781,145.4688 L180.5781,146.8906 C180.5781,147.3125 180.5469,147.5 180.4375,147.6563 C180.2656,147.875 180,148.0156 179.7344,148.0156 C179.5156,148.0156 179.2813,147.9063 179.1406,147.7656 C179,147.6406 178.9688,147.5156 178.9063,147.1094 C178.8125,146.7031 178.6406,146.4844 178.1563,146.2031 C177.6875,145.9531 177.0781,145.7969 176.5,145.7969 C174.7656,145.7969 173.5156,147.1094 173.5156,148.8906 L173.5156,149.9844 C173.5156,151.6875 174.8125,152.7813 176.8594,152.7813 C177.625,152.7813 178.3125,152.6563 178.7344,152.3906 C178.9219,152.2969 178.9219,152.2969 179.375,151.8125 C179.5625,151.625 179.7656,151.5469 179.9844,151.5469 C180.4531,151.5469 180.8438,151.9375 180.8438,152.3906 C180.8438,152.7813 180.5156,153.2344 179.9375,153.6406 C179.1875,154.1875 178.0313,154.4844 176.8125,154.4844 C173.9219,154.4844 171.8125,152.5938 171.8125,150.0156 L171.8125,148.8906 C171.8125,146.1719 173.8125,144.0938 176.4375,144.0938 C177.3125,144.0938 177.9063,144.2344 178.8438,144.6719 Z "/><text fill="#000000" font-family="sans-serif" font-size="12" lengthAdjust="spacingAndGlyphs" textLength="45" x="190.5" y="153.1543">Vehicle</text><line style="stroke: #A80036; stroke-width: 1.5;" x1="162.5" x2="237.5" y1="165" y2="165"/><line style="stroke: #A80036; stroke-width: 1.5;" x1="162.5" x2="237.5" y1="173" y2="173"/><rect fill="#FEFECE" filter="url(#f1)" height="48" style="stroke: #A80036; stroke-width: 1.5;" width="53" x="308.5" y="133"/><ellipse cx="323.5" cy="149" fill="#ADD1B2" rx="11" ry="11" style="stroke: #A80036; stroke-width: 1.0;"/><path d="M325.8438,144.6719 L326.0156,144.75 C326.2344,144.4375 326.4375,144.3438 326.7344,144.3438 C327.0313,144.3438 327.3125,144.4844 327.4688,144.75 C327.5625,144.9063 327.5781,145.0313 327.5781,145.4688 L327.5781,146.8906 C327.5781,147.3125 327.5469,147.5 327.4375,147.6563 C327.2656,147.875 327,148.0156 326.7344,148.0156 C326.5156,148.0156 326.2813,147.9063 326.1406,147.7656 C326,147.6406 325.9688,147.5156 325.9063,147.1094 C325.8125,146.7031 325.6406,146.4844 325.1563,146.2031 C324.6875,145.9531 324.0781,145.7969 323.5,145.7969 C321.7656,145.7969 320.5156,147.1094 320.5156,148.8906 L320.5156,149.9844 C320.5156,151.6875 321.8125,152.7813 323.8594,152.7813 C324.625,152.7813 325.3125,152.6563 325.7344,152.3906 C325.9219,152.2969 325.9219,152.2969 326.375,151.8125 C326.5625,151.625 326.7656,151.5469 326.9844,151.5469 C327.4531,151.5469 327.8438,151.9375 327.8438,152.3906 C327.8438,152.7813 327.5156,153.2344 326.9375,153.6406 C326.1875,154.1875 325.0313,154.4844 323.8125,154.4844 C320.9219,154.4844 318.8125,152.5938 318.8125,150.0156 L318.8125,148.8906 C318.8125,146.1719 320.8125,144.0938 323.4375,144.0938 C324.3125,144.0938 324.9063,144.2344 325.8438,144.6719 Z "/><text fill="#000000" font-family="sans-serif" font-size="12" lengthAdjust="spacingAndGlyphs" textLength="21" x="337.5" y="153.1543">Car</text><line style="stroke: #A80036; stroke-width: 1.5;" x1="309.5" x2="360.5" y1="165" y2="165"/><line style="stroke: #A80036; stroke-width: 1.5;" x1="309.5" x2="360.5" y1="173" y2="173"/><rect fill="#FEFECE" filter="url(#f1)" height="48" style="stroke: #A80036; stroke-width: 1.5;" width="70" x="446" y="133"/><ellipse cx="461" cy="149" fill="#ADD1B2" rx="11" ry="11" style="stroke: #A80036; stroke-width: 1.0;"/><path d="M463.3438,144.6719 L463.5156,144.75 C463.7344,144.4375 463.9375,144.3438 464.2344,144.3438 C464.5313,144.3438 464.8125,144.4844 464.9688,144.75 C465.0625,144.9063 465.0781,145.0313 465.0781,145.4688 L465.0781,146.8906 C465.0781,147.3125 465.0469,147.5 464.9375,147.6563 C464.7656,147.875 464.5,148.0156 464.2344,148.0156 C464.0156,148.0156 463.7813,147.9063 463.6406,147.7656 C463.5,147.6406 463.4688,147.5156 463.4063,147.1094 C463.3125,146.7031 463.1406,146.4844 462.6563,146.2031 C462.1875,145.9531 461.5781,145.7969 461,145.7969 C459.2656,145.7969 458.0156,147.1094 458.0156,148.8906 L458.0156,149.9844 C458.0156,151.6875 459.3125,152.7813 461.3594,152.7813 C462.125,152.7813 462.8125,152.6563 463.2344,152.3906 C463.4219,152.2969 463.4219,152.2969 463.875,151.8125 C464.0625,151.625 464.2656,151.5469 464.4844,151.5469 C464.9531,151.5469 465.3438,151.9375 465.3438,152.3906 C465.3438,152.7813 465.0156,153.2344 464.4375,153.6406 C463.6875,154.1875 462.5313,154.4844 461.3125,154.4844 C458.4219,154.4844 456.3125,152.5938 456.3125,150.0156 L456.3125,148.8906 C456.3125,146.1719 458.3125,144.0938 460.9375,144.0938 C461.8125,144.0938 462.4063,144.2344 463.3438,144.6719 Z "/><text fill="#000000" font-family="sans-serif" font-size="12" lengthAdjust="spacingAndGlyphs" textLength="38" x="475" y="153.1543">Wheel</text><line style="stroke: #A80036; stroke-width: 1.5;" x1="447" x2="515" y1="165" y2="165"/><line style="stroke: #A80036; stroke-width: 1.5;" x1="447" x2="515" y1="173" y2="173"/><rect fill="#FEFECE" filter="url(#f1)" height="48" style="stroke: #A80036; stroke-width: 1.5;" width="76" x="297" y="8"/><ellipse cx="312" cy="24" fill="#ADD1B2" rx="11" ry="11" style="stroke: #A80036; stroke-width: 1.0;"/><path d="M314.3438,19.6719 L314.5156,19.75 C314.7344,19.4375 314.9375,19.3438 315.2344,19.3438 C315.5313,19.3438 315.8125,19.4844 315.9688,19.75 C316.0625,19.9063 316.0781,20.0313 316.0781,20.4688 L316.0781,21.8906 C316.0781,22.3125 316.0469,22.5 315.9375,22.6563 C315.7656,22.875 315.5,23.0156 315.2344,23.0156 C315.0156,23.0156 314.7813,22.9063 314.6406,22.7656 C314.5,22.6406 314.4688,22.5156 314.4063,22.1094 C314.3125,21.7031 314.1406,21.4844 313.6563,21.2031 C313.1875,20.9531 312.5781,20.7969 312,20.7969 C310.2656,20.7969 309.0156,22.1094 309.0156,23.8906 L309.0156,24.9844 C309.0156,26.6875 310.3125,27.7813 312.3594,27.7813 C313.125,27.7813 313.8125,27.6563 314.2344,27.3906 C314.4219,27.2969 314.4219,27.2969 314.875,26.8125 C315.0625,26.625 315.2656,26.5469 315.4844,26.5469 C315.9531,26.5469 316.3438,26.9375 316.3438,27.3906 C316.3438,27.7813 316.0156,28.2344 315.4375,28.6406 C314.6875,29.1875 313.5313,29.4844 312.3125,29.4844 C309.4219,29.4844 307.3125,27.5938 307.3125,25.0156 L307.3125,23.8906 C307.3125,21.1719 309.3125,19.0938 311.9375,19.0938 C312.8125,19.0938 313.4063,19.2344 314.3438,19.6719 Z "/><text fill="#000000" font-family="sans-serif" font-size="12" lengthAdjust="spacingAndGlyphs" textLength="44" x="326" y="28.1543">Person</text><line style="stroke: #A80036; stroke-width: 1.5;" x1="298" x2="372" y1="40" y2="40"/><line style="stroke: #A80036; stroke-width: 1.5;" x1="298" x2="372" y1="48" y2="48"/><rect fill="#FEFECE" filter="url(#f1)" height="48" style="stroke: #A80036; stroke-width: 1.5;" width="68" x="6" y="133"/><ellipse cx="21" cy="149" fill="#ADD1B2" rx="11" ry="11" style="stroke: #A80036; stroke-width: 1.0;"/><path d="M23.3438,144.6719 L23.5156,144.75 C23.7344,144.4375 23.9375,144.3438 24.2344,144.3438 C24.5313,144.3438 24.8125,144.4844 24.9688,144.75 C25.0625,144.9063 25.0781,145.0313 25.0781,145.4688 L25.0781,146.8906 C25.0781,147.3125 25.0469,147.5 24.9375,147.6563 C24.7656,147.875 24.5,148.0156 24.2344,148.0156 C24.0156,148.0156 23.7813,147.9063 23.6406,147.7656 C23.5,147.6406 23.4688,147.5156 23.4063,147.1094 C23.3125,146.7031 23.1406,146.4844 22.6563,146.2031 C22.1875,145.9531 21.5781,145.7969 21,145.7969 C19.2656,145.7969 18.0156,147.1094 18.0156,148.8906 L18.0156,149.9844 C18.0156,151.6875 19.3125,152.7813 21.3594,152.7813 C22.125,152.7813 22.8125,152.6563 23.2344,152.3906 C23.4219,152.2969 23.4219,152.2969 23.875,151.8125 C24.0625,151.625 24.2656,151.5469 24.4844,151.5469 C24.9531,151.5469 25.3438,151.9375 25.3438,152.3906 C25.3438,152.7813 25.0156,153.2344 24.4375,153.6406 C23.6875,154.1875 22.5313,154.4844 21.3125,154.4844 C18.4219,154.4844 16.3125,152.5938 16.3125,150.0156 L16.3125,148.8906 C16.3125,146.1719 18.3125,144.0938 20.9375,144.0938 C21.8125,144.0938 22.4063,144.2344 23.3438,144.6719 Z "/><text fill="#000000" font-family="sans-serif" font-size="12" lengthAdjust="spacingAndGlyphs" textLength="36" x="35" y="153.1543">Driver</text><line style="stroke: #A80036; stroke-width: 1.5;" x1="7" x2="73" y1="165" y2="165"/><line style="stroke: #A80036; stroke-width: 1.5;" x1="7" x2="73" y1="173" y2="173"/><path d="M258.864,157 C275.345,157 291.827,157 308.308,157 " fill="none" style="stroke: #A80036; stroke-width: 1.0;"/><polygon fill="none" points="258.76,163.9999,238.76,157,258.76,149.9999,258.76,163.9999" style="stroke: #A80036; stroke-width: 1.0;"/><path d="M374.833,157 C397.04,157 424.447,157 445.852,157 " fill="none" style="stroke: #A80036; stroke-width: 1.0;"/><polygon fill="#A80036" points="361.779,157,367.779,161,373.779,157,367.779,153,361.779,157" style="stroke: #A80036; stroke-width: 1.0;"/><text fill="#000000" font-family="sans-serif" font-size="13" lengthAdjust="spacingAndGlyphs" textLength="35" x="379.75" y="150.0669">has 4</text><polygon fill="#000000" points="417.75,144.0664,423.75,147.0664,417.75,150.0664,417.75,144.0664" style="stroke: #000000; stroke-width: 1.0;"/><path d="M335,56.135 C335,78.126 335,111.0123 335,132.9684 " fill="none" style="stroke: #A80036; stroke-width: 1.0;"/><text fill="#000000" font-family="sans-serif" font-size="13" lengthAdjust="spacingAndGlyphs" textLength="32" x="336" y="99.0669">owns</text><polygon fill="#000000" points="347.5,108.1328,350.5,114.1328,353.5,108.1328,347.5,108.1328" style="stroke: #000000; stroke-width: 1.0;"/><text fill="#000000" font-family="sans-serif" font-size="13" lengthAdjust="spacingAndGlyphs" textLength="16" x="317.05" y="75.9291">0..</text><text fill="#000000" font-family="sans-serif" font-size="13" lengthAdjust="spacingAndGlyphs" textLength="8" x="325.975" y="121.9723">1</text><path d="M74.324,157 C99.8507,157 134.708,157 161.238,157 " fill="none" style="stroke: #A80036; stroke-width: 1.0;"/><text fill="#000000" font-family="sans-serif" font-size="13" lengthAdjust="spacingAndGlyphs" textLength="38" x="92.25" y="150.0669">drives</text><polygon fill="#000000" points="133.25,144.0664,139.25,147.0664,133.25,150.0664,133.25,144.0664" style="stroke: #000000; stroke-width: 1.0;"/></g></svg>