<?xml version="1.0" encoding="UTF-8" standalone="yes"?><svg xmlns="http://www.w3.org/2000/svg" xmlns:xlink="http://www.w3.org/1999/xlink" height="202px" style="width:596px;height:202px;" version="1.1" viewBox="0 0 596 202" width="596px"><defs><filter height="300%" id="f1" width="300%" x="-1" y="-1"><feGaussianBlur result="blurOut" stdDeviation="2.0"/><feColorMatrix in="blurOut" result="blurOut2" type="matrix" values="0 0 0 0 0 0 0 0 0 0 0 0 0 0 0 0 0 0 .4 0"/><feOffset dx="4.0" dy="4.0" in="blurOut2" result="blurOut3"/><feBlend in="SourceGraphic" in2="blurOut3" mode="normal"/></filter></defs><g><rect fill="#FEFECE" filter="url(#f1)" height="60.8047" style="stroke: #A80036; stroke-width: 1.5;" width="88" x="162" y="133"/><ellipse cx="181.95" cy="149" fill="#B4A7E5" rx="11" ry="11" style="stroke: #A80036; stroke-width: 1.0;"/><path d="M182.9031,145.7813 L182.9031,152.2969 L184.6219,152.2969 C185.075,152.2969 185.2156,152.3281 185.3875,152.4531 C185.6219,152.625 185.7313,152.875 185.7313,153.1563 C185.7313,153.7188 185.3719,154 184.6219,154 L179.4813,154 C179.075,154 178.8719,153.9531 178.7156,153.8281 C178.4969,153.6719 178.3563,153.4063 178.3563,153.1563 C178.3563,152.8594 178.5125,152.5781 178.7625,152.4219 C178.9188,152.3125 179.0438,152.2969 179.4813,152.2969 L181.2,152.2969 L181.2,145.7813 L179.4813,145.7813 C179.0594,145.7813 178.8719,145.75 178.7156,145.6406 C178.4969,145.4688 178.3563,145.2188 178.3563,144.9375 C178.3563,144.6563 178.5125,144.3594 178.7625,144.2031 C178.9188,144.1094 179.0438,144.0938 179.4813,144.0938 L184.6219,144.0938 C185.075,144.0938 185.2156,144.125 185.3875,144.2344 C185.6219,144.4063 185.7313,144.6719 185.7313,144.9375 C185.7313,145.2344 185.5906,145.5156 185.325,145.6719 C185.2,145.75 185.0125,145.7813 184.6219,145.7813 Z "/><text fill="#000000" font-family="sans-serif" font-size="12" font-style="italic" lengthAdjust="spacingAndGlyphs" textLength="45" x="197.05" y="153.1543">Vehicle</text><line style="stroke: #A80036; stroke-width: 1.5;" x1="163" x2="249" y1="165" y2="165"/><line style="stroke: #A80036; stroke-width: 1.5;" x1="163" x2="249" y1="173" y2="173"/><ellipse cx="173" cy="184.9023" fill="#84BE84" rx="3" ry="3" style="stroke: #038048; stroke-width: 1.0;"/><text fill="#000000" font-family="sans-serif" font-size="11" lengthAdjust="spacingAndGlyphs" textLength="62" x="182" y="187.2104">getSpeed()</text><rect fill="#FEFECE" filter="url(#f1)" height="60.8047" style="stroke: #A80036; stroke-width: 1.5;" width="113" x="319.5" y="133"/><ellipse cx="361.5" cy="149" fill="#ADD1B2" rx="11" ry="11" style="stroke: #A80036; stroke-width: 1.0;"/><path d="M363.8438,144.6719 L364.0156,144.75 C364.2344,144.4375 364.4375,144.3438 364.7344,144.3438 C365.0313,144.3438 365.3125,144.4844 365.4688,144.75 C365.5625,144.9063 365.5781,145.0313 365.5781,145.4688 L365.5781,146.8906 C365.5781,147.3125 365.5469,147.5 365.4375,147.6563 C365.2656,147.875 365,148.0156 364.7344,148.0156 C364.5156,148.0156 364.2813,147.9063 364.1406,147.7656 C364,147.6406 363.9688,147.5156 363.9063,147.1094 C363.8125,146.7031 363.6406,146.4844 363.1563,146.2031 C362.6875,145.9531 362.0781,145.7969 361.5,145.7969 C359.7656,145.7969 358.5156,147.1094 358.5156,148.8906 L358.5156,149.9844 C358.5156,151.6875 359.8125,152.7813 361.8594,152.7813 C362.625,152.7813 363.3125,152.6563 363.7344,152.3906 C363.9219,152.2969 363.9219,152.2969 364.375,151.8125 C364.5625,151.625 364.7656,151.5469 364.9844,151.5469 C365.4531,151.5469 365.8438,151.9375 365.8438,152.3906 C365.8438,152.7813 365.5156,153.2344 364.9375,153.6406 C364.1875,154.1875 363.0313,154.4844 361.8125,154.4844 C358.9219,154.4844 356.8125,152.5938 356.8125,150.0156 L356.8125,148.8906 C356.8125,146.1719 358.8125,144.0938 361.4375,144.0938 C362.3125,144.0938 362.9063,144.2344 363.8438,144.6719 Z "/><text fill="#000000" font-family="sans-serif" font-size="12" lengthAdjust="spacingAndGlyphs" textLength="21" x="381.5" y="153.1543">Car</text><line style="stroke: #A80036; stroke-width: 1.5;" x1="320.5" x2="431.5" y1="165" y2="165"/><polygon fill="none" points="330.5,171.9023,334.5,175.9023,330.5,179.9023,326.5,175.9023" style="stroke: #B38D22; stroke-width: 1.0;"/><text fill="#000000" font-family="sans-serif" font-size="11" lengthAdjust="spacingAndGlyphs" textLength="87" x="339.5" y="179.2104">weight : double</text><line style="stroke: #A80036; stroke-width: 1.5;" x1="320.5" x2="431.5" y1="185.8047" y2="185.8047"/><rect fill="#FEFECE" filter="url(#f1)" height="48" style="stroke: #A80036; stroke-width: 1.5;" width="70" x="517" y="139.5"/><ellipse cx="532" cy="155.5" fill="#ADD1B2" rx="11" ry="11" style="stroke: #A80036; stroke-width: 1.0;"/><path d="M534.3438,151.1719 L534.5156,151.25 C534.7344,150.9375 534.9375,150.8438 535.2344,150.8438 C535.5313,150.8438 535.8125,150.9844 535.9688,151.25 C536.0625,151.4063 536.0781,151.5313 536.0781,151.9688 L536.0781,153.3906 C536.0781,153.8125 536.0469,154 535.9375,154.1563 C535.7656,154.375 535.5,154.5156 535.2344,154.5156 C535.0156,154.5156 534.7813,154.4063 534.6406,154.2656 C534.5,154.1406 534.4688,154.0156 534.4063,153.6094 C534.3125,153.2031 534.1406,152.9844 533.6563,152.7031 C533.1875,152.4531 532.5781,152.2969 532,152.2969 C530.2656,152.2969 529.0156,153.6094 529.0156,155.3906 L529.0156,156.4844 C529.0156,158.1875 530.3125,159.2813 532.3594,159.2813 C533.125,159.2813 533.8125,159.1563 534.2344,158.8906 C534.4219,158.7969 534.4219,158.7969 534.875,158.3125 C535.0625,158.125 535.2656,158.0469 535.4844,158.0469 C535.9531,158.0469 536.3438,158.4375 536.3438,158.8906 C536.3438,159.2813 536.0156,159.7344 535.4375,160.1406 C534.6875,160.6875 533.5313,160.9844 532.3125,160.9844 C529.4219,160.9844 527.3125,159.0938 527.3125,156.5156 L527.3125,155.3906 C527.3125,152.6719 529.3125,150.5938 531.9375,150.5938 C532.8125,150.5938 533.4063,150.7344 534.3438,151.1719 Z "/><text fill="#000000" font-family="sans-serif" font-size="12" lengthAdjust="spacingAndGlyphs" textLength="38" x="546" y="159.6543">Wheel</text><line style="stroke: #A80036; stroke-width: 1.5;" x1="518" x2="586" y1="171.5" y2="171.5"/><line style="stroke: #A80036; stroke-width: 1.5;" x1="518" x2="586" y1="179.5" y2="179.5"/><rect fill="#FEFECE" filter="url(#f1)" height="48" style="stroke: #A80036; stroke-width: 1.5;" width="76" x="338" y="8"/><ellipse cx="353" cy="24" fill="#ADD1B2" rx="11" ry="11" style="stroke: #A80036; stroke-width: 1.0;"/><path d="M355.3438,19.6719 L355.5156,19.75 C355.7344,19.4375 355.9375,19.3438 356.2344,19.3438 C356.5313,19.3438 356.8125,19.4844 356.9688,19.75 C357.0625,19.9063 357.0781,20.0313 357.0781,20.4688 L357.0781,21.8906 C357.0781,22.3125 357.0469,22.5 356.9375,22.6563 C356.7656,22.875 356.5,23.0156 356.2344,23.0156 C356.0156,23.0156 355.7813,22.9063 355.6406,22.7656 C355.5,22.6406 355.4688,22.5156 355.4063,22.1094 C355.3125,21.7031 355.1406,21.4844 354.6563,21.2031 C354.1875,20.9531 353.5781,20.7969 353,20.7969 C351.2656,20.7969 350.0156,22.1094 350.0156,23.8906 L350.0156,24.9844 C350.0156,26.6875 351.3125,27.7813 353.3594,27.7813 C354.125,27.7813 354.8125,27.6563 355.2344,27.3906 C355.4219,27.2969 355.4219,27.2969 355.875,26.8125 C356.0625,26.625 356.2656,26.5469 356.4844,26.5469 C356.9531,26.5469 357.3438,26.9375 357.3438,27.3906 C357.3438,27.7813 357.0156,28.2344 356.4375,28.6406 C355.6875,29.1875 354.5313,29.4844 353.3125,29.4844 C350.4219,29.4844 348.3125,27.5938 348.3125,25.0156 L348.3125,23.8906 C348.3125,21.1719 350.3125,19.0938 352.9375,19.0938 C353.8125,19.0938 354.4063,19.2344 355.3438,19.6719 Z "/><text fill="#000000" font-family="sans-serif" font-size="12" lengthAdjust="spacingAndGlyphs" textLength="44" x="367" y="28.1543">Person</text><line style="stroke: #A80036; stroke-width: 1.5;" x1="339" x2="413" y1="40" y2="40"/><line style="stroke: #A80036; stroke-width: 1.5;" x1="339" x2="413" y1="48" y2="48"/><rect fill="#FEFECE" filter="url(#f1)" height="48" style="stroke: #A80036; stroke-width: 1.5;" width="68" x="6" y="139.5"/><ellipse cx="21" cy="155.5" fill="#B4A7E5" rx="11" ry="11" style="stroke: #A80036; stroke-width: 1.0;"/><path d="M21.9531,152.2813 L21.9531,158.7969 L23.6719,158.7969 C24.125,158.7969 24.2656,158.8281 24.4375,158.9531 C24.6719,159.125 24.7813,159.375 24.7813,159.6563 C24.7813,160.2188 24.4219,160.5 23.6719,160.5 L18.5313,160.5 C18.125,160.5 17.9219,160.4531 17.7656,160.3281 C17.5469,160.1719 17.4063,159.9063 17.4063,159.6563 C17.4063,159.3594 17.5625,159.0781 17.8125,158.9219 C17.9688,158.8125 18.0938,158.7969 18.5313,158.7969 L20.25,158.7969 L20.25,152.2813 L18.5313,152.2813 C18.1094,152.2813 17.9219,152.25 17.7656,152.1406 C17.5469,151.9688 17.4063,151.7188 17.4063,151.4375 C17.4063,151.1563 17.5625,150.8594 17.8125,150.7031 C17.9688,150.6094 18.0938,150.5938 18.5313,150.5938 L23.6719,150.5938 C24.125,150.5938 24.2656,150.625 24.4375,150.7344 C24.6719,150.9063 24.7813,151.1719 24.7813,151.4375 C24.7813,151.7344 24.6406,152.0156 24.375,152.1719 C24.25,152.25 24.0625,152.2813 23.6719,152.2813 Z "/><text fill="#000000" font-family="sans-serif" font-size="12" font-style="italic" lengthAdjust="spacingAndGlyphs" textLength="36" x="35" y="159.6543">Driver</text><line style="stroke: #A80036; stroke-width: 1.5;" x1="7" x2="73" y1="171.5" y2="171.5"/><line style="stroke: #A80036; stroke-width: 1.5;" x1="7" x2="73" y1="179.5" y2="179.5"/><path d="M270.195,163.5 C286.62,163.5 303.045,163.5 319.47,163.5 " fill="none" style="stroke: #A80036; stroke-width: 1.0;"/><polygon fill="none" points="270.16,170.4999,250.16,163.5,270.16,156.4999,270.16,170.4999" style="stroke: #A80036; stroke-width: 1.0;"/><path d="M445.957,163.5 C470.346,163.5 496.667,163.5 516.985,163.5 " fill="none" style="stroke: #A80036; stroke-width: 1.0;"/><polygon fill="#A80036" points="432.656,163.5,438.656,167.5,444.656,163.5,438.656,159.5,432.656,163.5" style="stroke: #A80036; stroke-width: 1.0;"/><text fill="#000000" font-family="sans-serif" font-size="13" lengthAdjust="spacingAndGlyphs" textLength="35" x="450.75" y="156.5669">has 4</text><polygon fill="#000000" points="488.75,150.5664,494.75,153.5664,488.75,156.5664,488.75,150.5664" style="stroke: #000000; stroke-width: 1.0;"/><path d="M376,56.152 C376,77.541 376,109.4319 376,132.7114 " fill="none" style="stroke: #A80036; stroke-width: 1.0;"/><text fill="#000000" font-family="sans-serif" font-size="13" lengthAdjust="spacingAndGlyphs" textLength="32" x="377" y="99.0669">owns</text><polygon fill="#000000" points="388.5,108.1328,391.5,114.1328,394.5,108.1328,388.5,108.1328" style="stroke: #000000; stroke-width: 1.0;"/><text fill="#000000" font-family="sans-serif" font-size="13" lengthAdjust="spacingAndGlyphs" textLength="16" x="358.05" y="75.9503">0..</text><text fill="#000000" font-family="sans-serif" font-size="13" lengthAdjust="spacingAndGlyphs" textLength="8" x="367.175" y="121.9151">1</text><path d="M74.3953,163.5 C99.7511,163.5 134.451,163.5 161.854,163.5 " fill="none" style="stroke: #A80036; stroke-width: 1.0;"/><text fill="#000000" font-family="sans-serif" font-size="13" lengthAdjust="spacingAndGlyphs" textLength="38" x="92.5" y="156.5669">drives</text><polygon fill="#000000" points="133.5,150.5664,139.5,153.5664,133.5,156.5664,133.5,150.5664" style="stroke: #000000; stroke-width: 1.0;"/></g></svg>