<?xml version="1.0" encoding="UTF-8" standalone="yes"?><svg xmlns="http://www.w3.org/2000/svg" xmlns:xlink="http://www.w3.org/1999/xlink" height="65px" style="width:369px;height:65px;" version="1.1" viewBox="0 0 369 65" width="369px"><defs><filter height="300%" id="f1" width="300%" x="-1" y="-1"><feGaussianBlur result="blurOut" stdDeviation="2.0"/><feColorMatrix in="blurOut" result="blurOut2" type="matrix" values="0 0 0 0 0 0 0 0 0 0 0 0 0 0 0 0 0 0 .4 0"/><feOffset dx="4.0" dy="4.0" in="blurOut2" result="blurOut3"/><feBlend in="SourceGraphic" in2="blurOut3" mode="normal"/></filter></defs><g><rect fill="#FEFECE" filter="url(#f1)" height="48" style="stroke: #A80036; stroke-width: 1.5;" width="77" x="6" y="8"/><ellipse cx="21" cy="24" fill="#ADD1B2" rx="11" ry="11" style="stroke: #A80036; stroke-width: 1.0;"/><path d="M23.3438,19.6719 L23.5156,19.75 C23.7344,19.4375 23.9375,19.3438 24.2344,19.3438 C24.5313,19.3438 24.8125,19.4844 24.9688,19.75 C25.0625,19.9063 25.0781,20.0313 25.0781,20.4688 L25.0781,21.8906 C25.0781,22.3125 25.0469,22.5 24.9375,22.6563 C24.7656,22.875 24.5,23.0156 24.2344,23.0156 C24.0156,23.0156 23.7813,22.9063 23.6406,22.7656 C23.5,22.6406 23.4688,22.5156 23.4063,22.1094 C23.3125,21.7031 23.1406,21.4844 22.6563,21.2031 C22.1875,20.9531 21.5781,20.7969 21,20.7969 C19.2656,20.7969 18.0156,22.1094 18.0156,23.8906 L18.0156,24.9844 C18.0156,26.6875 19.3125,27.7813 21.3594,27.7813 C22.125,27.7813 22.8125,27.6563 23.2344,27.3906 C23.4219,27.2969 23.4219,27.2969 23.875,26.8125 C24.0625,26.625 24.2656,26.5469 24.4844,26.5469 C24.9531,26.5469 25.3438,26.9375 25.3438,27.3906 C25.3438,27.7813 25.0156,28.2344 24.4375,28.6406 C23.6875,29.1875 22.5313,29.4844 21.3125,29.4844 C18.4219,29.4844 16.3125,27.5938 16.3125,25.0156 L16.3125,23.8906 C16.3125,21.1719 18.3125,19.0938 20.9375,19.0938 C21.8125,19.0938 22.4063,19.2344 23.3438,19.6719 Z "/><text fill="#000000" font-family="sans-serif" font-size="12" lengthAdjust="spacingAndGlyphs" textLength="45" x="35" y="28.1543">Vehicle</text><line style="stroke: #A80036; stroke-width: 1.5;" x1="7" x2="82" y1="40" y2="40"/><line style="stroke: #A80036; stroke-width: 1.5;" x1="7" x2="82" y1="48" y2="48"/><rect fill="#FEFECE" filter="url(#f1)" height="48" style="stroke: #A80036; stroke-width: 1.5;" width="53" x="153" y="8"/><ellipse cx="168" cy="24" fill="#ADD1B2" rx="11" ry="11" style="stroke: #A80036; stroke-width: 1.0;"/><path d="M170.3438,19.6719 L170.5156,19.75 C170.7344,19.4375 170.9375,19.3438 171.2344,19.3438 C171.5313,19.3438 171.8125,19.4844 171.9688,19.75 C172.0625,19.9063 172.0781,20.0313 172.0781,20.4688 L172.0781,21.8906 C172.0781,22.3125 172.0469,22.5 171.9375,22.6563 C171.7656,22.875 171.5,23.0156 171.2344,23.0156 C171.0156,23.0156 170.7813,22.9063 170.6406,22.7656 C170.5,22.6406 170.4688,22.5156 170.4063,22.1094 C170.3125,21.7031 170.1406,21.4844 169.6563,21.2031 C169.1875,20.9531 168.5781,20.7969 168,20.7969 C166.2656,20.7969 165.0156,22.1094 165.0156,23.8906 L165.0156,24.9844 C165.0156,26.6875 166.3125,27.7813 168.3594,27.7813 C169.125,27.7813 169.8125,27.6563 170.2344,27.3906 C170.4219,27.2969 170.4219,27.2969 170.875,26.8125 C171.0625,26.625 171.2656,26.5469 171.4844,26.5469 C171.9531,26.5469 172.3438,26.9375 172.3438,27.3906 C172.3438,27.7813 172.0156,28.2344 171.4375,28.6406 C170.6875,29.1875 169.5313,29.4844 168.3125,29.4844 C165.4219,29.4844 163.3125,27.5938 163.3125,25.0156 L163.3125,23.8906 C163.3125,21.1719 165.3125,19.0938 167.9375,19.0938 C168.8125,19.0938 169.4063,19.2344 170.3438,19.6719 Z "/><text fill="#000000" font-family="sans-serif" font-size="12" lengthAdjust="spacingAndGlyphs" textLength="21" x="182" y="28.1543">Car</text><line style="stroke: #A80036; stroke-width: 1.5;" x1="154" x2="205" y1="40" y2="40"/><line style="stroke: #A80036; stroke-width: 1.5;" x1="154" x2="205" y1="48" y2="48"/><rect fill="#FEFECE" filter="url(#f1)" height="48" style="stroke: #A80036; stroke-width: 1.5;" width="70" x="290.5" y="8"/><ellipse cx="305.5" cy="24" fill="#ADD1B2" rx="11" ry="11" style="stroke: #A80036; stroke-width: 1.0;"/><path d="M307.8438,19.6719 L308.0156,19.75 C308.2344,19.4375 308.4375,19.3438 308.7344,19.3438 C309.0313,19.3438 309.3125,19.4844 309.4688,19.75 C309.5625,19.9063 309.5781,20.0313 309.5781,20.4688 L309.5781,21.8906 C309.5781,22.3125 309.5469,22.5 309.4375,22.6563 C309.2656,22.875 309,23.0156 308.7344,23.0156 C308.5156,23.0156 308.2813,22.9063 308.1406,22.7656 C308,22.6406 307.9688,22.5156 307.9063,22.1094 C307.8125,21.7031 307.6406,21.4844 307.1563,21.2031 C306.6875,20.9531 306.0781,20.7969 305.5,20.7969 C303.7656,20.7969 302.5156,22.1094 302.5156,23.8906 L302.5156,24.9844 C302.5156,26.6875 303.8125,27.7813 305.8594,27.7813 C306.625,27.7813 307.3125,27.6563 307.7344,27.3906 C307.9219,27.2969 307.9219,27.2969 308.375,26.8125 C308.5625,26.625 308.7656,26.5469 308.9844,26.5469 C309.4531,26.5469 309.8438,26.9375 309.8438,27.3906 C309.8438,27.7813 309.5156,28.2344 308.9375,28.6406 C308.1875,29.1875 307.0313,29.4844 305.8125,29.4844 C302.9219,29.4844 300.8125,27.5938 300.8125,25.0156 L300.8125,23.8906 C300.8125,21.1719 302.8125,19.0938 305.4375,19.0938 C306.3125,19.0938 306.9063,19.2344 307.8438,19.6719 Z "/><text fill="#000000" font-family="sans-serif" font-size="12" lengthAdjust="spacingAndGlyphs" textLength="38" x="319.5" y="28.1543">Wheel</text><line style="stroke: #A80036; stroke-width: 1.5;" x1="291.5" x2="359.5" y1="40" y2="40"/><line style="stroke: #A80036; stroke-width: 1.5;" x1="291.5" x2="359.5" y1="48" y2="48"/><path d="M103.3637,32 C119.845,32 136.327,32 152.808,32 " fill="none" style="stroke: #A80036; stroke-width: 1.0;"/><polygon fill="none" points="103.2598,38.9999,83.2598,32,103.2597,24.9999,103.2598,38.9999" style="stroke: #A80036; stroke-width: 1.0;"/><path d="M219.333,32 C241.54,32 268.947,32 290.352,32 " fill="none" style="stroke: #A80036; stroke-width: 1.0;"/><polygon fill="#A80036" points="206.279,32,212.279,36,218.279,32,212.279,28,206.279,32" style="stroke: #A80036; stroke-width: 1.0;"/><text fill="#000000" font-family="sans-serif" font-size="13" lengthAdjust="spacingAndGlyphs" textLength="35" x="224.25" y="25.0669">has 4</text><polygon fill="#000000" points="262.25,19.0664,268.25,22.0664,262.25,25.0664,262.25,19.0664" style="stroke: #000000; stroke-width: 1.0;"/></g></svg>