<?xml version="1.0" encoding="UTF-8" standalone="yes"?><svg xmlns="http://www.w3.org/2000/svg" xmlns:xlink="http://www.w3.org/1999/xlink" height="65px" style="width:180px;height:65px;" version="1.1" viewBox="0 0 180 65" width="180px"><defs><filter height="300%" id="f1" width="300%" x="-1" y="-1"><feGaussianBlur result="blurOut" stdDeviation="2.0"/><feColorMatrix in="blurOut" result="blurOut2" type="matrix" values="0 0 0 0 0 0 0 0 0 0 0 0 0 0 0 0 0 0 .4 0"/><feOffset dx="4.0" dy="4.0" in="blurOut2" result="blurOut3"/><feBlend in="SourceGraphic" in2="blurOut3" mode="normal"/></filter></defs><g><rect fill="#FEFECE" filter="url(#f1)" height="48" style="stroke: #A80036; stroke-width: 1.5;" width="77" x="6" y="8"/><ellipse cx="21" cy="24" fill="#ADD1B2" rx="11" ry="11" style="stroke: #A80036; stroke-width: 1.0;"/><path d="M23.3438,19.6719 L23.5156,19.75 C23.7344,19.4375 23.9375,19.3438 24.2344,19.3438 C24.5313,19.3438 24.8125,19.4844 24.9688,19.75 C25.0625,19.9063 25.0781,20.0313 25.0781,20.4688 L25.0781,21.8906 C25.0781,22.3125 25.0469,22.5 24.9375,22.6563 C24.7656,22.875 24.5,23.0156 24.2344,23.0156 C24.0156,23.0156 23.7813,22.9063 23.6406,22.7656 C23.5,22.6406 23.4688,22.5156 23.4063,22.1094 C23.3125,21.7031 23.1406,21.4844 22.6563,21.2031 C22.1875,20.9531 21.5781,20.7969 21,20.7969 C19.2656,20.7969 18.0156,22.1094 18.0156,23.8906 L18.0156,24.9844 C18.0156,26.6875 19.3125,27.7813 21.3594,27.7813 C22.125,27.7813 22.8125,27.6563 23.2344,27.3906 C23.4219,27.2969 23.4219,27.2969 23.875,26.8125 C24.0625,26.625 24.2656,26.5469 24.4844,26.5469 C24.9531,26.5469 25.3438,26.9375 25.3438,27.3906 C25.3438,27.7813 25.0156,28.2344 24.4375,28.6406 C23.6875,29.1875 22.5313,29.4844 21.3125,29.4844 C18.4219,29.4844 16.3125,27.5938 16.3125,25.0156 L16.3125,23.8906 C16.3125,21.1719 18.3125,19.0938 20.9375,19.0938 C21.8125,19.0938 22.4063,19.2344 23.3438,19.6719 Z "/><text fill="#000000" font-family="sans-serif" font-size="12" lengthAdjust="spacingAndGlyphs" textLength="45" x="35" y="28.1543">Vehicle</text><line style="stroke: #A80036; stroke-width: 1.5;" x1="7" x2="82" y1="40" y2="40"/><line style="stroke: #A80036; stroke-width: 1.5;" x1="7" x2="82" y1="48" y2="48"/><rect fill="#FEFECE" filter="url(#f1)" height="48" style="stroke: #A80036; stroke-width: 1.5;" width="53" x="118" y="8"/><ellipse cx="133" cy="24" fill="#ADD1B2" rx="11" ry="11" style="stroke: #A80036; stroke-width: 1.0;"/><path d="M135.3438,19.6719 L135.5156,19.75 C135.7344,19.4375 135.9375,19.3438 136.2344,19.3438 C136.5313,19.3438 136.8125,19.4844 136.9688,19.75 C137.0625,19.9063 137.0781,20.0313 137.0781,20.4688 L137.0781,21.8906 C137.0781,22.3125 137.0469,22.5 136.9375,22.6563 C136.7656,22.875 136.5,23.0156 136.2344,23.0156 C136.0156,23.0156 135.7813,22.9063 135.6406,22.7656 C135.5,22.6406 135.4688,22.5156 135.4063,22.1094 C135.3125,21.7031 135.1406,21.4844 134.6563,21.2031 C134.1875,20.9531 133.5781,20.7969 133,20.7969 C131.2656,20.7969 130.0156,22.1094 130.0156,23.8906 L130.0156,24.9844 C130.0156,26.6875 131.3125,27.7813 133.3594,27.7813 C134.125,27.7813 134.8125,27.6563 135.2344,27.3906 C135.4219,27.2969 135.4219,27.2969 135.875,26.8125 C136.0625,26.625 136.2656,26.5469 136.4844,26.5469 C136.9531,26.5469 137.3438,26.9375 137.3438,27.3906 C137.3438,27.7813 137.0156,28.2344 136.4375,28.6406 C135.6875,29.1875 134.5313,29.4844 133.3125,29.4844 C130.4219,29.4844 128.3125,27.5938 128.3125,25.0156 L128.3125,23.8906 C128.3125,21.1719 130.3125,19.0938 132.9375,19.0938 C133.8125,19.0938 134.4063,19.2344 135.3438,19.6719 Z "/><text fill="#000000" font-family="sans-serif" font-size="12" lengthAdjust="spacingAndGlyphs" textLength="21" x="147" y="28.1543">Car</text><line style="stroke: #A80036; stroke-width: 1.5;" x1="119" x2="170" y1="40" y2="40"/><line style="stroke: #A80036; stroke-width: 1.5;" x1="119" x2="170" y1="48" y2="48"/><path d="M103.385,32 C108.146,32 112.908,32 117.669,32 " fill="none" style="stroke: #A80036; stroke-width: 1.0;"/><polygon fill="none" points="103.1719,38.9999,83.1719,32,103.1718,24.9999,103.1719,38.9999" style="stroke: #A80036; stroke-width: 1.0;"/></g></svg>